<?xml version="1.0" encoding="iso-8859-1"?>
<!-- Uploaded to: SVG Repo, www.svgrepo.com, Generator: SVG Repo Mixer Tools -->
<svg version="1.1" id="Layer_1" xmlns="http://www.w3.org/2000/svg" xmlns:xlink="http://www.w3.org/1999/xlink" 
	 viewBox="0 0 512.003 512.003" xml:space="preserve">
<path style="fill:#FF8189;" d="M435.621,145.795c-0.783-2.832-3.827-5.147-6.764-5.147h-31.509c-2.937,0-5.981,2.316-6.763,5.147
	l-7.058,25.526c-0.782,2.832,0.981,5.147,3.918,5.147h51.319c2.937,0,4.7-2.317,3.917-5.147L435.621,145.795z"/>
<rect x="78.96" y="134.809" style="fill:#A4A9AD;" width="26.97" height="26.927"/>
<rect x="78.96" y="134.809" style="opacity:0.1;enable-background:new    ;" width="26.97" height="11.749"/>
<rect x="144.11" y="134.809" style="fill:#A4A9AD;" width="26.97" height="26.927"/>
<rect x="144.11" y="134.809" style="opacity:0.1;enable-background:new    ;" width="26.97" height="11.749"/>
<rect x="209.266" y="134.809" style="fill:#A4A9AD;" width="26.97" height="26.927"/>
<rect x="209.266" y="134.809" style="opacity:0.1;enable-background:new    ;" width="26.97" height="11.749"/>
<path style="fill:#FF5959;" d="M24.852,357.551V188.446c0-14.687,12.016-26.703,26.703-26.703h408.889
	c14.687,0,26.703,12.016,26.703,26.703v169.105H24.852z"/>
<rect x="24.852" y="266.188" style="fill:#D1D3D3;" width="462.292" height="20.984"/>
<g>
	<path style="fill:#A4A9AD;" d="M503.989,365.624c0,5.464-4.471,9.937-9.936,9.937h-22.357c-5.464,0-9.937-4.472-9.937-9.937
		v-16.146c0-5.464,4.471-9.937,9.937-9.937h22.357c5.464,0,9.936,4.471,9.936,9.937V365.624z"/>
	<path style="fill:#A4A9AD;" d="M45.966,365.624c0,5.464-4.472,9.937-9.937,9.937H17.947c-5.466,0-9.936-4.472-9.936-9.937v-16.146
		c0-5.464,4.47-9.937,9.936-9.937h18.084c5.464,0,9.937,4.471,9.937,9.937v16.146H45.966z"/>
</g>
<path style="opacity:0.2;enable-background:new    ;" d="M199.864,357.551c0-35.918-29.118-65.036-65.036-65.036
	s-65.036,29.118-65.036,65.036H199.864z"/>
<circle style="fill:#333E48;" cx="134.828" cy="357.555" r="53.822"/>
<circle style="fill:#A4A9AD;" cx="134.828" cy="357.555" r="27.28"/>
<path style="opacity:0.2;enable-background:new    ;" d="M442.206,357.551c0-35.918-29.118-65.036-65.036-65.036
	s-65.036,29.118-65.036,65.036H442.206z"/>
<circle style="fill:#333E48;" cx="377.174" cy="357.555" r="53.822"/>
<circle style="fill:#A4A9AD;" cx="377.174" cy="357.555" r="27.28"/>
<path style="fill:#D1D3D3;" d="M377.17,111.314c0-5.875-4.807-10.681-10.681-10.681H60.511c-5.875,0-10.681,4.807-10.681,10.681
	v12.817c0,5.875,4.807,10.681,10.681,10.681h305.978c5.875,0,10.681-4.807,10.681-10.681V111.314z"/>
<path style="fill:#333E48;" d="M382.511,229.349c0,4.7,3.845,8.545,8.545,8.545h62.189c4.7,0,8.545-3.845,8.545-8.545v-37.028
	c0-4.7-3.845-8.545-8.545-8.545h-62.189c-4.7,0-8.545,3.845-8.545,8.545V229.349z"/>
<path style="opacity:0.1;enable-background:new    ;" d="M453.245,183.776h-62.189c-4.7,0-8.545,3.845-8.545,8.545v11.035
	c0-4.7,3.845-8.545,8.545-8.545h62.189c4.7,0,8.545,3.845,8.545,8.545v-11.035C461.79,187.621,457.945,183.776,453.245,183.776z"/>
<path style="fill:#333E48;" d="M304.646,229.349c0,4.7,3.845,8.545,8.545,8.545h36.566c4.699,0,8.545-3.845,8.545-8.545v-37.028
	c0-4.7-3.846-8.545-8.545-8.545h-36.566c-4.7,0-8.545,3.845-8.545,8.545V229.349z"/>
<path style="opacity:0.1;enable-background:new    ;" d="M349.757,183.776h-36.566c-4.7,0-8.545,3.845-8.545,8.545v11.035
	c0-4.7,3.845-8.545,8.545-8.545h36.566c4.699,0,8.545,3.845,8.545,8.545v-11.035C358.302,187.621,354.457,183.776,349.757,183.776z"
	/>
<rect x="215.888" y="253.37" style="fill:#A4A9AD;" width="80.216" height="104.184"/>
<g>
	<path style="fill:#FFB819;" d="M487.147,339.542h-22.864c-2.937,0-5.341-2.403-5.341-5.341v-13.536
		c0-2.937,2.403-5.341,5.341-5.341h22.864V339.542z"/>
	<path style="fill:#FFB819;" d="M24.852,339.542h22.865c2.937,0,5.341-2.403,5.341-5.341v-13.536c0-2.937-2.403-5.341-5.341-5.341
		H24.852V339.542z"/>
</g>
<g>
	<path style="fill:#D1D3D3;" d="M265.206,196.947c0-2.937-2.403-5.341-5.341-5.341h-18.176c-2.937,0-5.341,2.403-5.341,5.341v27.779
		c0,2.937,2.403,5.341,5.341,5.341h18.176c2.937,0,5.341-2.403,5.341-5.341V196.947z"/>
	<path style="fill:#D1D3D3;" d="M89.327,196.947c0-2.937-2.403-5.341-5.341-5.341H65.811c-2.937,0-5.341,2.403-5.341,5.341v27.779
		c0,2.937,2.403,5.341,5.341,5.341h18.175c2.937,0,5.341-2.403,5.341-5.341V196.947z"/>
</g>
<path style="fill:#1E252B;" d="M377.17,322.261c-19.46,0-35.291,15.832-35.291,35.291c0,19.459,15.831,35.291,35.291,35.291
	c19.46,0,35.291-15.832,35.291-35.291S396.63,322.261,377.17,322.261z M377.17,376.82c-10.625,0-19.269-8.644-19.269-19.269
	s8.644-19.269,19.269-19.269s19.269,8.644,19.269,19.269C396.439,368.176,387.795,376.82,377.17,376.82z M349.757,175.765h-36.566
	c-9.129,0-16.556,7.427-16.556,16.556v37.028c0,9.129,7.427,16.556,16.556,16.556h36.566c9.129,0,16.556-7.427,16.556-16.556
	v-37.028C366.313,183.192,358.886,175.765,349.757,175.765z M350.291,229.349c0,0.275-0.26,0.534-0.534,0.534h-36.566
	c-0.274,0-0.534-0.26-0.534-0.534v-37.028c0-0.275,0.26-0.534,0.534-0.534h36.566c0.275,0,0.534,0.26,0.534,0.534V229.349z
	 M134.828,322.261c-19.459,0-35.291,15.832-35.291,35.291c0,19.459,15.832,35.291,35.291,35.291s35.291-15.832,35.291-35.291
	S154.289,322.261,134.828,322.261z M134.828,376.82c-10.625,0-19.269-8.644-19.269-19.269s8.644-19.269,19.269-19.269
	s19.269,8.644,19.269,19.269C154.097,368.176,145.454,376.82,134.828,376.82z M495.158,331.586V188.446
	c0-19.142-15.572-34.714-34.714-34.714h-14.318l-2.784-10.073c-1.739-6.284-7.966-11.022-14.486-11.022h-31.509
	c-6.521,0-12.748,4.74-14.484,11.024l-2.785,10.071H244.251v-10.909h122.239c10.306,0,18.692-8.386,18.692-18.692v-12.817
	c0-10.306-8.386-18.692-18.692-18.692H60.511c-10.306,0-18.692,8.386-18.692,18.692v12.817c0,10.306,8.386,18.692,18.692,18.692
	h10.438v10.909H51.555c-19.141,0-34.714,15.572-34.714,34.714v143.141C7.461,332.162,0,339.954,0,349.477v16.146
	c0,9.896,8.05,17.948,17.947,17.948h18.084c9.896,0,17.948-8.051,17.948-17.948v-0.062h19.557
	c3.942,30.321,29.917,53.82,61.295,53.82s57.351-23.5,61.295-53.82h119.752c3.942,30.321,29.918,53.82,61.295,53.82
	s57.352-23.5,61.295-53.82h15.285v0.062c0,9.896,8.051,17.948,17.948,17.948h22.357c9.896,0,17.947-8.051,17.947-17.948v-16.146
	C512,339.954,504.538,332.162,495.158,331.586z M398.103,148.658h29.998l1.404,5.074h-32.804L398.103,148.658z M60.511,126.802
	c-1.447,0-2.67-1.223-2.67-2.67v-12.817c0-1.447,1.223-2.67,2.67-2.67h305.978c1.447,0,2.67,1.223,2.67,2.67v12.817
	c0,1.447-1.223,2.67-2.67,2.67H60.511z M228.229,142.823v10.909h-10.948v-10.909H228.229z M201.259,142.823v10.909h-22.163v-10.909
	H201.259z M163.074,142.823v10.909h-10.948v-10.909H163.074z M136.104,142.823v10.909H113.94v-10.909H136.104z M97.919,142.823
	v10.909H86.97v-10.909H97.919z M37.956,365.624c0,1.044-0.882,1.926-1.926,1.926H17.947c-1.042,0-1.925-0.882-1.925-1.926v-16.146
	c0-1.044,0.881-1.926,1.925-1.926h18.084c1.044,0,1.926,0.882,1.926,1.926v16.146H37.956z M134.828,403.361
	c-25.259,0-45.809-20.55-45.809-45.809c0-25.259,20.55-45.809,45.809-45.809c25.259,0,45.809,20.55,45.809,45.809
	C180.638,382.811,160.088,403.361,134.828,403.361z M288.091,349.54h-64.19v-88.161h64.19V349.54z M377.17,403.361
	c-25.259,0-45.809-20.55-45.809-45.809c0-25.259,20.55-45.809,45.809-45.809c25.259,0,45.809,20.55,45.809,45.809
	S402.43,403.361,377.17,403.361z M453.75,349.477v0.063h-15.285c-3.942-30.321-29.918-53.82-61.295-53.82s-57.352,23.5-61.295,53.82
	h-11.764v-96.172c0-4.424-3.586-8.011-8.011-8.011h-80.211c-4.424,0-8.011,3.587-8.011,8.011v96.172h-11.756
	c-3.942-30.321-29.917-53.82-61.295-53.82c-31.377,0-57.352,23.5-61.295,53.82H53.975v-0.063c0-9.896-8.051-17.948-17.948-17.948
	h-3.167V188.445c0-10.307,8.386-18.692,18.692-18.692h408.891c10.306,0,18.692,8.385,18.692,18.692V331.53h-7.439
	C461.802,331.531,453.75,339.581,453.75,349.477z M495.978,365.624c0,1.044-0.881,1.926-1.925,1.926h-22.357
	c-1.044,0-1.926-0.882-1.926-1.926v-16.146c0-1.044,0.881-1.926,1.926-1.926h22.357c1.044,0,1.925,0.882,1.925,1.926V365.624z
	 M259.866,183.596h-18.176c-7.361,0-13.351,5.989-13.351,13.351v5.879h-131v-5.879c0-7.363-5.989-13.351-13.351-13.351H65.811
	c-7.361,0-13.351,5.989-13.351,13.351v27.779c0,7.363,5.99,13.351,13.351,13.351h18.175c7.363,0,13.351-5.989,13.351-13.351v-5.878
	h131v5.878c0,7.363,5.99,13.351,13.351,13.351h18.176c7.363,0,13.351-5.989,13.351-13.351v-27.779
	C273.217,189.584,267.228,183.596,259.866,183.596z M81.316,222.055H68.481v-22.438h12.834V222.055z M257.195,222.055H244.36
	v-22.438h12.836V222.055z M453.245,175.765h-62.189c-9.129,0-16.556,7.427-16.556,16.556v37.028c0,9.129,7.427,16.556,16.556,16.556
	h62.189c9.129,0,16.556-7.427,16.556-16.556v-37.028C469.801,183.192,462.374,175.765,453.245,175.765z M453.779,229.349
	c0,0.275-0.26,0.534-0.534,0.534h-62.189c-0.274,0-0.534-0.26-0.534-0.534v-37.028c0-0.275,0.26-0.534,0.534-0.534h62.189
	c0.275,0,0.534,0.26,0.534,0.534V229.349z M240.093,339.534h31.805c4.424,0,8.011-3.587,8.011-8.011
	c0-4.424-3.587-8.011-8.011-8.011h-31.805c-4.424,0-8.011,3.587-8.011,8.011C232.082,335.948,235.668,339.534,240.093,339.534z
	 M271.899,288.257c4.127,0,7.473-3.346,7.473-7.473c0-4.127-3.345-7.473-7.473-7.473c-4.126,0-7.473,3.345-7.473,7.473
	C264.426,284.911,267.772,288.257,271.899,288.257z M240.1,288.257c4.127,0,7.473-3.346,7.473-7.473
	c0-4.127-3.345-7.473-7.473-7.473s-7.473,3.345-7.473,7.473C232.627,284.911,235.974,288.257,240.1,288.257z M240.093,315.073
	h31.805c4.424,0,8.011-3.587,8.011-8.011s-3.587-8.011-8.011-8.011h-31.805c-4.424,0-8.011,3.587-8.011,8.011
	S235.668,315.073,240.093,315.073z"/>
</svg>